<?xml version="1.0" encoding="UTF-8" standalone="no"?><!-- Generator: Gravit.io --><svg xmlns="http://www.w3.org/2000/svg" xmlns:xlink="http://www.w3.org/1999/xlink" style="isolation:isolate" viewBox="0 0 400 400" width="400pt" height="400pt"><defs><clipPath id="_clipPath_AIgo7WKxWEcuraHbHt6CLC6rqhIjDmbO"><rect width="400" height="400"/></clipPath></defs><g clip-path="url(#_clipPath_AIgo7WKxWEcuraHbHt6CLC6rqhIjDmbO)"><linearGradient id="_lgradient_2" x1="0.4999999999999999" y1="1" x2="0.5000000000000002" y2="0"><stop offset="0%" stop-opacity="1" style="stop-color:rgb(251,251,251)"/><stop offset="98.69565217391305%" stop-opacity="1" style="stop-color:rgb(32,195,249)"/></linearGradient><path d=" M 99.954 67 L 238.305 67 L 238.305 119.741 L 99.954 119.741 L 99.954 67 L 99.954 67 L 99.954 67 L 99.954 67 L 99.954 67 Z  M 256.649 67 L 395 67 L 395 119.741 L 256.649 119.741 L 256.649 67 L 256.649 67 L 256.649 67 L 256.649 67 L 256.649 67 Z  M 99.954 137.322 L 153.46 137.322 L 153.46 261.149 L 99.954 261.149 L 99.954 137.322 L 99.954 137.322 L 99.954 137.322 L 99.954 137.322 Z  M 172.569 137.322 L 395 137.322 L 395 190.063 L 172.569 190.063 L 172.569 137.322 L 172.569 137.322 L 172.569 137.322 Z  M 172.569 208.408 L 395 208.408 L 395 261.149 L 172.569 261.149 L 172.569 208.408 L 172.569 208.408 Z  M 99.954 280.259 L 395 280.259 L 395 333 L 99.954 333 L 99.954 280.259 Z " fill-rule="evenodd" fill="none" vector-effect="non-scaling-stroke" stroke-width="5" stroke="url(#_lgradient_2)" stroke-linejoin="miter" stroke-linecap="square" stroke-miterlimit="3"/></g></svg>